<svg width="13" height="16" viewBox="0 0 13 16" fill="none" xmlns="http://www.w3.org/2000/svg">
<path d="M10.8088 1.80038C9.75558 0.773783 8.298 0.208374 6.7046 0.208374C4.2706 0.208374 2.77359 1.22139 1.94636 2.07116C0.926868 3.1184 0.342255 4.50892 0.342255 5.88627C0.342255 7.61562 1.05469 8.94296 2.24775 9.43676C2.32785 9.47009 2.40844 9.48687 2.48745 9.48687C2.73914 9.48687 2.93857 9.31966 3.00766 9.05144C3.04793 8.89756 3.14125 8.51795 3.18182 8.35315C3.26868 8.0277 3.1985 7.87117 3.00909 7.64453C2.66403 7.22999 2.50334 6.7398 2.50334 6.10183C2.50334 4.20688 3.89307 2.19292 6.4688 2.19292C8.51253 2.19292 9.78208 3.37229 9.78208 5.27075C9.78208 6.46877 9.52792 7.57824 9.06629 8.39494C8.74551 8.9624 8.18143 9.63885 7.31547 9.63885C6.94099 9.63885 6.60461 9.48266 6.39235 9.21038C6.19184 8.95298 6.12576 8.62047 6.2064 8.27393C6.2975 7.88239 6.42172 7.47397 6.54194 7.07912C6.7612 6.35798 6.96848 5.67687 6.96848 5.13346C6.96848 4.20397 6.40568 3.57943 5.56814 3.57943C4.50374 3.57943 3.66985 4.67708 3.66985 6.07833C3.66985 6.76555 3.84974 7.27955 3.93116 7.47692C3.79708 8.05376 3.00016 11.4831 2.84899 12.1298C2.76159 12.5073 2.23507 15.489 3.10656 15.7267C4.08573 15.9938 4.96097 13.0899 5.05005 12.7618C5.12225 12.4949 5.37488 11.4858 5.5297 10.8655C6.00238 11.3278 6.76347 11.6403 7.50404 11.6403C8.90013 11.6403 10.1557 11.0024 11.0394 9.84429C11.8965 8.72098 12.3685 7.15533 12.3685 5.43596C12.3685 4.09178 11.8 2.76665 10.8088 1.80038Z" fill="white"/>
</svg>
